<svg width="38" height="36" viewBox="0 0 38 36" fill="none" xmlns="http://www.w3.org/2000/svg">
	<path d="M36.9563 16.9999L35.6868 14.8021L31.8329 8.12505C31.8148 8.09344 31.8072 8.05682 31.8113 8.02059C31.8155 7.98435 31.8311 7.9504 31.856 7.9237C33.1255 6.51936 33.5623 4.34546 32.4046 2.19373C32.0501 1.53993 31.5101 1.0056 30.8526 0.658001C27.7812 -0.973284 24.6935 0.631552 23.8233 3.24741C23.8123 3.28222 23.7905 3.3126 23.761 3.3341C23.7315 3.3556 23.6959 3.36708 23.6595 3.36686H13.992C13.737 3.36621 13.4863 3.43283 13.2652 3.56C13.0441 3.68718 12.8604 3.8704 12.7328 4.09121L11.4649 6.28474L9.22361 10.1676C9.09479 10.3927 8.9002 10.573 8.66595 10.6843C8.43171 10.7956 8.16901 10.8327 7.91312 10.7904C6.61799 10.5754 5.19659 10.7238 3.76154 11.3433C2.6524 11.8202 1.30608 13.0931 0.783077 14.1784C-1.663 19.2582 1.97753 24.2579 6.7801 24.2579C7.55122 24.2586 8.31676 24.1273 9.04359 23.8697C9.08144 23.8556 9.12305 23.8555 9.16101 23.8692C9.19897 23.883 9.23082 23.9097 9.25091 23.9448L11.9137 28.5562L13.1815 30.7532C13.3088 30.9736 13.4919 31.1567 13.7123 31.284C13.9328 31.4113 14.1828 31.4783 14.4374 31.4784H22.4744C22.5107 31.4783 22.5461 31.4899 22.5754 31.5114C22.6048 31.5329 22.6264 31.5631 22.6373 31.5978C22.9161 32.4416 23.3788 33.213 23.9919 33.8562C24.605 34.4994 25.3533 34.9985 26.1828 35.3174C27.0122 35.6362 27.9022 35.767 28.7883 35.7001C29.6744 35.6332 30.5346 35.3704 31.3068 34.9306C32.079 34.4908 32.7439 33.8851 33.2536 33.1571C33.7632 32.4291 34.1048 31.5971 34.2537 30.721C34.4027 29.8449 34.3552 28.9467 34.1148 28.0912C33.8744 27.2357 33.4471 26.4442 32.8636 25.774C32.8395 25.7471 32.8246 25.7134 32.8209 25.6775C32.8172 25.6416 32.825 25.6055 32.8431 25.5743L35.6868 20.6472L36.9563 18.4511C37.0838 18.2305 37.1509 17.9803 37.1509 17.7255C37.1509 17.4707 37.0838 17.2204 36.9563 16.9999ZM26.7215 3.79601C27.2181 2.95477 28.3562 2.53927 29.4654 3.21925C29.5874 3.2936 29.6931 3.39201 29.7759 3.50848C30.1931 4.10571 30.2682 4.68758 30.1436 5.19181C30.0781 5.45051 29.9577 5.69212 29.7908 5.90035C29.6239 6.10858 29.4143 6.27858 29.176 6.39888C28.9378 6.51918 28.6765 6.58697 28.4099 6.59769C28.1432 6.60841 27.8774 6.5618 27.6302 6.46101C27.3831 6.36021 27.1605 6.20759 26.9774 6.01342C26.7943 5.81926 26.655 5.58808 26.5689 5.33548C26.4828 5.08289 26.4518 4.81475 26.4781 4.54918C26.5045 4.28361 26.5875 4.02677 26.7215 3.79601ZM10.7389 18.1295C10.6109 18.8999 10.2614 19.6165 9.73316 20.1917C9.20489 20.767 8.52061 21.176 7.76382 21.369C6.84153 21.6036 5.79552 21.5081 4.74611 21.0013C4.16358 20.7188 3.68261 20.2632 3.36907 19.6968C1.66271 16.5997 3.85197 13.4626 6.7818 13.4626C6.9562 13.4619 7.13042 13.4739 7.3031 13.4984C7.99056 13.5858 8.64307 13.8521 9.19546 14.2705C9.44172 14.4558 9.66587 14.6688 9.8635 14.9053C10.3089 15.4369 10.6075 16.0757 10.7295 16.7584C10.7735 16.9953 10.7955 17.2358 10.7952 17.4768C10.7955 17.6964 10.7767 17.9157 10.7389 18.132V18.1295ZM11.5118 12.6179L11.5076 12.6136C11.4482 12.5561 11.4097 12.4803 11.3983 12.3984C11.3868 12.3165 11.4031 12.2331 11.4444 12.1615L14.4186 7.0108C14.5459 6.79005 14.729 6.60673 14.9497 6.47927C15.1703 6.35181 15.4206 6.28471 15.6754 6.28474H21.756C21.831 6.28487 21.9039 6.30972 21.9634 6.35543C22.0229 6.40115 22.0656 6.46518 22.085 6.53764C22.1045 6.61009 22.0995 6.68693 22.0708 6.75627C22.0422 6.8256 21.9915 6.88357 21.9266 6.92121L11.9555 12.6751C11.886 12.7159 11.805 12.7329 11.7249 12.7235C11.6449 12.7141 11.57 12.6788 11.5118 12.623V12.6179ZM21.6707 28.5562H16.125C15.8703 28.5563 15.62 28.4894 15.3994 28.3621C15.1788 28.2348 14.9956 28.0516 14.8683 27.831L12.2516 23.2989C12.2046 23.2176 12.1858 23.123 12.1981 23.0299C12.2103 22.9368 12.253 22.8504 12.3194 22.784C12.3858 22.7176 12.4722 22.675 12.5653 22.6627C12.6584 22.6504 12.753 22.6692 12.8343 22.7162L21.8328 27.9112C21.9016 27.9464 21.9565 28.004 21.9884 28.0744C22.0202 28.1449 22.0272 28.2241 22.0082 28.299C21.9891 28.374 21.9452 28.4403 21.8836 28.487C21.822 28.5337 21.7463 28.5581 21.669 28.5562H21.6707ZM23.9657 25.6102C23.9395 25.6393 23.9041 25.6584 23.8654 25.6645C23.8267 25.6705 23.7872 25.6631 23.7533 25.6434L13.7992 19.8981C13.6417 19.8069 13.5175 19.6677 13.4447 19.5008C13.372 19.334 13.3545 19.1482 13.3948 18.9707C13.6186 17.9681 13.6143 16.9281 13.382 15.9274C13.3402 15.7491 13.3569 15.5621 13.4295 15.394C13.5022 15.2259 13.627 15.0857 13.7856 14.994L24.7694 8.65061C24.9076 8.57093 25.0653 8.53157 25.2247 8.537C25.3842 8.54243 25.5388 8.59243 25.6713 8.68133C25.8943 8.83287 26.1301 8.96476 26.376 9.0755C26.5252 9.14316 26.6518 9.25236 26.7406 9.39004C26.8294 9.52772 26.8767 9.68806 26.8768 9.8519V23.7588C26.8769 23.7966 26.8643 23.8335 26.8412 23.8634C26.818 23.8934 26.7855 23.9148 26.7488 23.9243C25.6821 24.2174 24.7177 24.8011 23.9632 25.6102H23.9657ZM28.3409 32.8776C27.5026 32.8776 26.6987 32.5446 26.106 31.9519C25.5132 31.3591 25.1803 30.5552 25.1803 29.717C25.1803 28.8787 25.5132 28.0748 26.106 27.4821C26.6987 26.8893 27.5026 26.5564 28.3409 26.5564C28.5208 26.5564 28.7003 26.5721 28.8775 26.6033C29.6656 26.7283 30.3771 27.1471 30.8689 27.7754C31.3608 28.4038 31.5964 29.1951 31.5284 29.9901C31.4604 30.7851 31.0938 31.5249 30.5024 32.0607C29.911 32.5964 29.1387 32.8882 28.3409 32.8776ZM33.5845 18.4494L30.5071 23.781C30.4629 23.8574 30.3943 23.9168 30.3123 23.9496C30.2303 23.9824 30.1397 23.9867 30.0549 23.9618H30.0489C29.9774 23.9406 29.9146 23.8969 29.87 23.837C29.8254 23.7772 29.8014 23.7046 29.8015 23.6299V11.7332C29.7988 11.6559 29.8224 11.5799 29.8684 11.5178C29.9145 11.4556 29.9803 11.411 30.0551 11.3911C30.1298 11.3713 30.2091 11.3775 30.2799 11.4086C30.3508 11.4397 30.4089 11.494 30.4448 11.5625L33.5845 17.0016C33.711 17.222 33.7773 17.4717 33.7768 17.7258C33.7764 17.9799 33.7092 18.2295 33.582 18.4494H33.5845Z" fill="#4447E2" />
</svg>
